<?xml version="1.0" encoding="utf-8"?>
<!-- Generator: Adobe Illustrator 24.0.3, SVG Export Plug-In . SVG Version: 6.00 Build 0)  -->
<svg version="1.1" id="Ebene_1" xmlns="http://www.w3.org/2000/svg" xmlns:xlink="http://www.w3.org/1999/xlink" x="0px" y="0px"
	 width="230px" height="64px" viewBox="0 0 230 64" style="enable-background:new 0 0 230 64;" xml:space="preserve">
<style type="text/css">
	.st0{fill:#FFA525;}
	.st1{fill:#132937;}
</style>
<g>
	<g>
		<g>
			<polygon class="st0" points="8.414588,9.5341263 12.1131868,11.6476049 12.1131868,15.8745766 8.414588,17.9880695 
				4.7159882,15.8745766 4.7159882,11.6476116 			"/>
			<polygon class="st0" points="3.2371995,1.144832 5.4563727,2.4129272 5.4563727,4.9491258 3.2371995,6.2172289 
				1.0180261,4.9491258 1.0180261,2.4129312 			"/>
			<polygon class="st0" points="15.7955627,2.0822964 18.7544422,3.7730794 18.7544422,7.1546564 15.7955627,8.8454504 
				12.8366833,7.1546564 12.8366833,3.7730849 			"/>
			<polygon class="st0" points="32.0864105,4.8572879 26.3804131,8.1178551 26.3829746,8.1193266 26.3829746,11.5008984 
				23.4241085,13.1916847 20.4652042,11.5008984 20.4652042,11.4979553 16.5522118,13.733963 16.5522118,15.8723593 
				18.0316448,15.0269661 21.7302647,17.1404591 21.7302647,21.367424 18.0316448,23.4809151 16.5522118,22.6355228 
				16.5522118,31.4873123 32.0864105,40.3640251 47.6206055,31.4873123 47.6206055,13.733943 			"/>
		</g>
	</g>
	<path class="st1" d="M224.3840027,29.3645763c-1.1676025,0.6442833-2.4153442,0.9642277-3.7370758,0.9642277
		c-1.344635,0-2.580368-0.3255634-3.7046967-0.9830437c-1.1316071-0.6510906-2.0157318-1.5419998-2.6667938-2.66679
		c-0.6458435-1.1315956-0.9706116-2.33605-0.9706116-3.619772h15.6771545c0-1.3826599-0.2149658-2.6800289-0.6462708-3.8912983
		c-0.4292297-1.2104473-1.0322876-2.2439175-1.7994537-3.0916138c-0.7680054-0.8412962-1.6785583-1.4923868-2.7292938-1.9540339
		c-1.0506592-0.4548836-2.2306976-0.6827374-3.5404968-0.6827374c-1.7265625,0-3.257782,0.3936262-4.5963745,1.1864548
		c-1.3410339,0.7928362-2.3848877,1.8995829-3.1408997,3.3246775c-0.7559357,1.4206734-1.1375732,2.9931316-1.1375732,4.7081184
		c0,1.3225822,0.2166138,2.5378666,0.6458435,3.6446228c0.4368591,1.1115494,1.0702972,2.0961876,1.9060059,2.9566727
		c0.8288422,0.8540936,1.7938385,1.5051746,2.8874359,1.9544411c1.0951233,0.4424667,2.2931976,0.6630993,3.6021729,0.6630993
		c1.7762146,0,3.4304199-0.417654,4.9659424-1.252924c1.5364227-0.8308392,2.7349091-1.9608402,3.582962-3.3935223
		l-1.5131226-0.7003307C226.5842438,27.7781391,225.5527954,28.7250957,224.3840027,29.3645763z M215.6384583,16.7277756
		c1.1996613-1.1123638,2.6864166-1.6653643,4.4686737-1.6653643c1.2284393,0,2.3171844,0.2514639,3.2690125,0.7499781
		c0.9469604,0.4977341,1.7345886,1.2172966,2.3544312,2.163065c0.6194305,0.9526253,1.0383301,2.0902042,1.2529297,3.4239902
		h-13.6786804C213.6655884,19.3961601,214.4471893,17.8405132,215.6384583,16.7277756z M194.9215546,17.9698792
		c-0.7615509-1.4263268-1.8070831-2.5326653-3.1344452-3.3314848c-1.3269348-0.7984467-2.8037109-1.1988792-4.4366302-1.1988792
		c-1.6224976,0-3.0928955,0.4004326-4.4130402,1.2052784c-1.3149414,0.8052092-2.3548431,1.9168024-3.1112671,3.3306608
		c-0.7547607,1.4207058-1.1367493,2.980751-1.1367493,4.6833115c0,1.689764,0.3819885,3.2521839,1.1439667,4.683712
		c0.7616119,1.4262905,1.7942505,2.5382481,3.1040497,3.3362865c1.3093262,0.7996349,2.777298,1.1988373,4.4130402,1.1988373
		c0.8164215,0,1.5908813-0.1041088,2.3280182-0.3079281c0.7443542-0.2018147,1.4395294-0.5025368,2.1018219-0.8965263
		c1.3466339-0.8424854,2.3921051-1.966053,3.1460266-3.3679352c0.7576599-1.4082489,1.1379852-2.9566822,1.1379852-4.6464462
		C196.0643311,20.9562054,195.6840057,19.3905506,194.9215546,17.9698792z M193.2197723,26.4691601
		c-0.584198,1.1559944-1.3881989,2.0589561-2.4044647,2.6976223c-1.0134735,0.6454639-2.1694336,0.9650002-3.4648285,0.9650002
		c-1.2741547,0-2.4221344-0.3247395-3.4428253-0.9706192c-1.019043-0.6518612-1.8186798-1.5428143-2.3901062-2.6735954
		c-0.5782166-1.1359825-0.8676758-2.4157238-0.8676758-3.8288021c0-1.0554943,0.1665497-2.0461235,0.4981079-2.974308
		c0.3251801-0.9221592,0.806015-1.727005,1.432724-2.4093342c0.6206055-0.6878967,1.3393555-1.2044544,2.1562653-1.5664253
		c0.8175964-0.3623867,1.6905518-0.5421877,2.6135101-0.5421877c1.2953949,0,2.4585571,0.3203602,3.4784241,0.9658232
		c1.019043,0.6386642,1.8190918,1.542408,2.4013367,2.7104549c0.583847,1.1616135,0.872879,2.4329529,0.872879,3.8159771
		C194.1031189,24.0421982,193.8088074,25.3079205,193.2197723,26.4691601z M152.4708099,31.3554726v-6.047554h1.6913757
		c0,1.4379292,0.4980927,2.6055279,1.4935608,3.491272c0.9942474,0.8909111,2.3035889,1.3325939,3.9272919,1.3325939
		c1.4006653,0,2.5626831-0.3247433,3.484848-0.9834557c0.9161682-0.6502628,1.3758545-1.4739304,1.3758545-2.476162
		c0-1.149189-0.4168396-1.9240189-1.2529297-2.3112106c-0.8300629-0.3920269-2.1946869-0.780447-4.0866852-1.1612415
		c-1.88797-0.3871899-3.3066254-0.8913212-4.2592468-1.511982c-0.9465942-0.626646-1.4198914-1.720602-1.4198914-3.2753906
		c0-0.91539,0.2330627-1.7214241,0.7011566-2.4277391c0.4652557-0.7003698,1.1231384-1.2721558,1.9660339-1.7137976
		c0.3939972-0.1970186,0.828476-0.3455715,1.302948-0.4564848c0.4737091-0.1036959,0.9706268-0.1597881,1.4867706-0.1597881
		c2.0657654,0,3.6626282,0.7635965,4.7865906,2.2868128h0.0937347v-2.034112h1.6220703v5.7279787h-1.6220703
		c0-0.4060516-0.061676-0.7992287-0.1793823-1.1808414c-0.1221466-0.3743973-0.2887115-0.7423992-0.502533-1.0863304
		c-0.424881-0.6771221-0.9966583-1.1992531-1.7158051-1.5672531c-0.718338-0.3747663-1.5244141-0.5601816-2.4161377-0.5601816
		c-1.2476807,0-2.1926727,0.3327389-2.8313293,0.9886198c-0.64711,0.6643295-0.9650421,1.4034882-0.9650421,2.2127209
		c0,1.0334778,0.3868103,1.7217922,1.1660309,2.0661755c0.7820129,0.3443432,2.1398163,0.7067261,4.0758667,1.1007633
		c1.9308167,0.3863697,3.3791199,0.9145279,4.3461304,1.5712299c0.9638062,0.6590805,1.4483337,1.7774334,1.4483337,3.3507137
		c0,1.0082207-0.2695007,1.8935547-0.8092651,2.6555519c-0.5413666,0.7615871-1.3149567,1.3574409-2.3248291,1.7818623
		c-1.007843,0.4236412-2.1758575,0.6394806-3.5084534,0.6394806c-2.440155,0-4.2108307-0.8116512-5.3099518-2.4341354h-0.0736694
		v2.1818848H152.4708099z M141.0100555,28.910099c-1.6473389,0-2.993988-0.5037174-4.0499268-1.505991
		c-1.0574646-1.0030117-1.6969299-2.3048115-1.9111328-3.9040451h14.6569366c0-1.6397514-0.2578888-3.0968666-0.7676544-4.3633595
		c-0.5109406-1.2657642-1.2412872-2.3156414-2.2014923-3.1577177c-1.9115448-1.6909599-4.0302124-2.5394707-6.3610077-2.5394707
		c-2.3949432,0-4.5175781,0.8733168-6.3538666,2.6127462c-1.8371124,1.7394199-2.7544556,3.932909-2.7544556,6.5885048
		c0,2.8205452,0.9469604,5.0640545,2.8457489,6.7238102c1.8939972,1.6653385,4.1744232,2.4950237,6.8235321,2.4950237
		c0.8536682,0,1.6949921-0.0989399,2.5310364-0.2899265c0.8368835-0.1905785,1.6345062-0.4600506,2.4040985-0.8112431
		c1.5849152-0.7551899,2.8638611-1.8923607,3.8340607-3.4047604l-3.0231781-1.33218
		C145.2745056,27.9438686,143.3880768,28.910099,141.0100555,28.910099z M136.9601288,17.5445957
		c0.9694366-0.8905029,2.1439209-1.3333683,3.5085297-1.3333683c1.499588,0,2.7720795,0.4985142,3.8119965,1.4883633
		c1.0382538,0.9894428,1.6697388,2.0953636,1.8979492,3.3182354h-11.0019073
		C135.3929749,19.5915432,135.9879913,18.4303455,136.9601288,17.5445957z M123.7031097,13.9252319v2.4837875
		c-1.8006363-1.8367205-3.8536148-2.7544832-6.1592255-2.7544832c-2.2783432,0-4.290123,0.8549099-6.022644,2.5634966
		c-1.7326584,1.7145786-2.5999908,3.9389019-2.5999908,6.67379c0,2.5081863,0.7872849,4.6288166,2.3673401,6.3682384
		c1.579155,1.7317982,3.6129227,2.5995388,6.0971451,2.5995388c1.3630142,0,2.6231613-0.3079262,3.7795334-0.9161663
		c1.1483994-0.6146297,1.9964523-1.2657127,2.5378418-1.9480419v1.5856647c0,0.5529556-0.0176163,1.0446644-0.0560455,1.474741
		c-0.0368347,0.4364433-0.0728302,0.7563858-0.1217346,0.970993c-0.1233292,0.4989204-0.3944092,1.0150719-0.8244705,1.5604515
		c-0.4224243,0.5477524-1.0506592,1.0078468-1.8823395,1.377449c-0.8272476,0.3743935-1.7321777,0.5597725-2.7156982,0.5597725
		c-1.7617874,0-3.4091263-0.5910225-4.9347305-1.7642365l-2.2311096,2.482975
		c2.0409164,1.5492477,4.3341064,2.3236313,6.8771515,2.3236313c1.7033844,0,3.2470245-0.3007202,4.6296616-0.9105568
		c1.3826447-0.6082306,2.4141693-1.3453865,3.1032333-2.2239113c0.693924-0.8729095,1.1307831-1.7394218,1.3086319-2.5939255
		c0.1789627-0.8480568,0.2694092-2.1450195,0.2694092-3.8904743V16.9676037h3.1345139v-3.0423717H123.7031097z
		 M122.0498047,27.1322594c-1.1427765,1.1255703-2.4838028,1.6845608-4.0138474,1.6845608
		c-1.5976715,0-2.9122009-0.5541954-3.9396973-1.6649647c-1.0258331-1.1123657-1.5351791-2.5566483-1.5351791-4.3337154
		c0-1.8251209,0.5653915-3.2750206,1.6893768-4.3497467c1.1316147-1.0763302,2.4276886-1.6112862,3.8900299-1.6112862
		c1.486763,0,2.7969208,0.5461578,3.9285355,1.6408863c1.1231461,1.0883389,1.6885376,2.5266399,1.6885376,4.3025188
		C123.7575607,24.5639591,123.1869659,26.0090656,122.0498047,27.1322594z M60.2327652,28.3130608V16.9676056h-2.8986168v-3.0423717
		h6.3230095v2.1946793c2.0653534-1.6408949,4.0874557-2.4653807,6.0671158-2.4653807
		c1.9772797,0,3.3547287,0.9037447,4.1243134,2.7172613c2.2800064-1.8135166,4.3925934-2.7172613,6.3346176-2.7172613
		c1.1067886,0,2.0213165,0.2470837,2.7480927,0.7383795c0.7243576,0.4917068,1.2228699,1.1247911,1.4875488,1.8924065
		c0.2642975,0.7679825,0.393219,1.8935528,0.393219,3.3871231v8.6406193h3.0407715v3.0424118h-6.4635315v-11.075983
		c0-1.0438919-0.0496597-1.7494278-0.1421585-2.1258354c-0.0729065-0.417654-0.3015366-0.7615871-0.6763-1.0318775
		c-0.3796082-0.2707005-0.8233032-0.4068298-1.3270187-0.4068298c-1.462326,0-3.1232758,0.7511711-4.9852142,2.2503605v9.3477535
		h2.9883347v3.0424118h-6.4098969V19.9551563c0-1.1247902-0.1669693-1.9488659-0.5041351-2.4650097
		c-0.3387604-0.5157337-0.8921356-0.7751999-1.6729584-0.7751999c-1.2957306,0-2.9606934,0.7511711-5.0028,2.2503605v9.3477535
		h3.0616074v3.0424118h-9.6012726v-3.0424118H60.2327652z M197.8091278,31.3554726v-1.6597538h3.3106384v-14.129591h-3.3106384
		v-1.6588945h5.2358551v4.2844725h0.0740814c0.4176636-1.0823536,1.0078583-1.9624805,1.7626495-2.6435785
		c0.7564087-0.6875362,1.6713409-1.198432,2.7360687-1.5299816c0.486084-0.1601982,0.9761963-0.2578669,1.4871368-0.3019447
		c0.5097504-0.0420284,1.1800537-0.0616684,2.0089264-0.0616684v1.8375435c-0.9470062,0-1.7142029,0.0256271-2.296402,0.0812683
		c-0.5786285,0.0552711-1.1564026,0.1657743-1.7214203,0.3315487c-1.0647278,0.3131399-1.8863831,0.7619982-2.4649811,1.3522348
		c-0.5782166,0.5901947-0.9902191,1.3209896-1.241684,2.1942673c-0.1105042,0.4112587-0.1958313,0.8661041-0.2522888,1.3686352
		c-0.0616302,0.5053196-0.0920868,1.0531178-0.0920868,1.6425343v7.2331543h3.5829468v1.6597538H197.8091278z
		 M104.5988007,28.3130608v-8.0688305c0-1.3894253-0.0868454-2.4217072-0.2522125-3.0916138
		c-0.1666107-0.6767292-0.484581-1.2857676-0.95224-1.8387413c-0.4732742-0.5513706-1.186058-1.0010433-2.1462708-1.3514214
		c-0.9577866-0.3499527-2.0825348-0.5229387-3.366684-0.5229387c-3.5649185,0-6.0718918,1.3594494-7.5294495,4.0698614
		l3.2834396,0.8656864c0.7784119-1.3698196,2.0209351-2.0517349,3.7230759-2.0517349
		c0.9830322,0,1.7947388,0.1970139,2.422142,0.5826111c0.6319046,0.3940334,1.0259018,0.8172626,1.1855774,1.2789612
		c0.1666107,0.4604511,0.2454758,1.1495953,0.2454758,2.05933v1.7262135
		c-1.5355225-0.9830418-3.1148148-1.4743347-4.7316971-1.4743347c-1.7514572,0-3.2513962,0.5341415-4.4919128,1.6096916
		c-1.2421112,1.0743103-1.8627853,2.4157162-1.8627853,4.0254078c0,1.6108875,0.583847,2.9326534,1.7579117,3.9641228
		c1.1676102,1.0334797,2.5433884,1.5492134,4.1286469,1.5492134c2.0281448,0,3.8789291-0.8060341,5.5446472-2.4160976v2.1270218
		h5.9806137v-3.042408H104.5988007z M101.2116547,26.9048042c-1.4626846,1.3958664-3.0299072,2.0905876-4.69487,2.0905876
		c-0.4913712,0-0.9281616-0.0676575-1.3089752-0.2094116c-0.3748474-0.1349316-0.6995392-0.3435631-0.9781799-0.6202412
		c-0.551796-0.5537891-0.8289032-1.2352962-0.8289032-2.0529747c0-0.8841019,0.3195648-1.6036644,0.9529953-2.1506462
		c0.639061-0.5461597,1.4318924-0.8172722,2.376915-0.8172722c1.51194,0,3.0070953,0.5774517,4.4810181,1.7258167V26.9048042z
		 M171.5411377,15.5661278h-3.0972443v-1.6588945h3.0972443V9.9987164l1.9224091-1.511981v5.4204979h3.6390076v1.6588945h-3.6390076
		v12.1691608c0,0.7431774,0.0740509,1.2905254,0.2282257,1.6404839c0.1493683,0.3447933,0.4937134,0.5541954,1.0326996,0.6274681
		c0.0608521,0.0124226,0.1721649,0.0180397,0.3251038,0.0180397c0.5037231,0,1.1868744-0.1101322,2.0529785-0.3255615v1.6597538
		c-0.895752,0.2650433-1.7262268,0.3923988-2.482605,0.3923988c-0.2022247,0-0.3551636-0.0068073-0.4484711-0.0176315
		c-0.8292542-0.0732727-1.473938-0.3812046-1.9364166-0.9269524c-0.4596863-0.5477982-0.693924-1.298151-0.693924-2.2559776
		V15.5661278z"/>
	<g>
		<polygon class="st1" points="27.4144611,57.1718521 24.5634403,48.3368225 23.4470882,48.3368225 20.6024475,57.1718521 
			18.163105,48.3888435 18.1486073,48.3368225 16.5228424,48.3368225 19.7405243,59.2611122 21.3348675,59.2611122 
			24.0085239,51.2206535 26.6822491,59.2611122 28.2700043,59.2611122 31.4876862,48.3368225 29.8618507,48.3368225 		"/>
		<path class="st1" d="M38.2253418,52.6775856c-0.57621-0.304718-1.2326775-0.4591942-1.9511566-0.4591942
			c-0.7184753,0-1.3749428,0.1544762-1.9511528,0.4591942c-0.5769768,0.3049965-1.0411644,0.7345009-1.3797989,1.2765846
			c-0.3387794,0.5426369-0.5105934,1.1785736-0.5105934,1.8901825c0,0.7071724,0.1717453,1.3419991,0.5105209,1.8867874
			c0.3385696,0.5442352,0.8028259,0.9749184,1.3798714,1.2799149c0.57621,0.304718,1.2326775,0.4591942,1.9511528,0.4591942
			c0.7184792,0,1.3749466-0.1544762,1.9511566-0.4591942c0.5770454-0.3050652,1.0412292-0.7356796,1.3797989-1.2799149
			c0.3387756-0.5448608,0.5105934-1.1796837,0.5105934-1.8867874c0-0.7115402-0.1718178-1.3474731-0.5106621-1.8901825
			C39.2665024,53.4120865,38.8022461,52.9825821,38.2253418,52.6775856z M37.5004807,57.9193268
			c-0.3579178,0.2020569-0.76828,0.3045082-1.2197723,0.3045082c-0.4559326,0-0.868515-0.1024513-1.2262268-0.3045082
			c-0.3575745-0.2018509-0.643219-0.4854164-0.8490906-0.8427811c-0.2061539-0.3575058-0.3106842-0.7720947-0.3106842-1.232193
			c0-0.464325,0.1045303-0.8799591,0.3106117-1.2353821c0.2058754-0.3552856,0.4915886-0.6378059,0.8491631-0.8396568
			c0.3576431-0.2019882,0.7702217-0.3044395,1.2262268-0.3044395c0.451561,0,0.8619232,0.1024513,1.2197037,0.3044395
			c0.3574371,0.2018509,0.6431503,0.4843712,0.8491631,0.8395882c0.2060814,0.3557014,0.3106117,0.7713356,0.3106117,1.2354507
			c0,0.4598885-0.1045303,0.8744812-0.3106842,1.2322617C38.1434898,57.4339104,37.8578491,57.7174759,37.5004807,57.9193268z"/>
		<path class="st1" d="M46.6965561,52.2954559c-0.2200241-0.0511208-0.4398422-0.0770645-0.6532059-0.0770645
			c-0.4464302,0-0.8520737,0.1055717-1.2056961,0.3136673c-0.2880707,0.1695251-0.5370865,0.4048119-0.7424774,0.7009964v-0.8055305
			h-1.4097633v6.8335876h1.4097633v-4.2858963c0-0.2585907,0.0783119-0.5045586,0.2327194-0.731102
			c0.1566238-0.2296677,0.3641624-0.4191017,0.6168594-0.5631714c0.2514458-0.1433754,0.519886-0.2160683,0.7980385-0.2160683
			c0.1501045,0,0.313736,0.0212936,0.4863129,0.0633278c0.171608,0.0418282,0.3241425,0.0989151,0.453228,0.1696663
			l0.0653419,0.0357933l0.5855064-1.2004929l-0.060833-0.0321159C47.1105232,52.4157333,46.91679,52.3465767,46.6965561,52.2954559z
			"/>
		<rect x="49.3246384" y="47.8793602" class="st1" width="1.4097633" height="11.381752"/>
		<path class="st1" d="M59.3356056,53.482975c-0.2597694-0.3637466-0.5916786-0.6581306-0.9893456-0.8767662
			c-0.4683495-0.2573433-0.9932289-0.3878174-1.5600777-0.3878174c-0.6550102,0-1.2468262,0.1596756-1.7590141,0.4745216
			c-0.5116348,0.3144989-0.9202614,0.7488594-1.2145729,1.2910156c-0.2940369,0.5416679-0.4431725,1.1675415-0.4431725,1.860424
			c0,0.6971169,0.1513557,1.3263893,0.4498291,1.8704147c0.2988243,0.5445137,0.7097397,0.9777641,1.221302,1.2877541
			c0.5123291,0.3103371,1.0908279,0.4677277,1.7195473,0.4677277c0.5627556,0,1.0867348-0.1338768,1.5573044-0.3979454
			c0.4029388-0.2262001,0.7446289-0.5301552,1.0181999-0.9054146v1.094223h1.4097672V47.8728409h-1.4097672V53.482975z
			 M59.0827026,54.6069603c0.1938057,0.3603477,0.2920952,0.7788925,0.2920952,1.2439156
			c0,0.4607162-0.0982208,0.8758659-0.2920227,1.2339249c-0.1933212,0.3572273-0.4638405,0.6416206-0.803936,0.8452759
			c-0.3399544,0.2035866-0.7365837,0.3068008-1.1789894,0.3068008c-0.4380379,0-0.8324432-0.1032143-1.1724014-0.3068695
			c-0.3402328-0.2037239-0.6106834-0.4880486-0.8039322-0.8452759c-0.193737-0.3578529-0.2920265-0.7729988-0.2920265-1.2338562
			c0-0.465023,0.0993309-0.8834267,0.2952843-1.2436371c0.1953316-0.3593102,0.4669647-0.6448135,0.8071976-0.8486061
			c0.3401642-0.2036552,0.7346382-0.3068695,1.1724663-0.3068695c0.4378319,0,0.8322372,0.1032143,1.1724014,0.306797
			C58.6189346,53.9622841,58.8893852,54.2477226,59.0827026,54.6069603z"/>
		<path class="st1" d="M64.712677,48.1407967c-0.2576904,0-0.4700165,0.0792847-0.631012,0.23563
			c-0.1617546,0.1569748-0.2437439,0.3631935-0.2437439,0.6129761c0,0.2083015,0.0651321,0.3898964,0.1935272,0.5396576
			c0.1141052,0.13311,0.2599792,0.2246704,0.434288,0.2727394c-0.0156708,0.1278381-0.0463333,0.2610893-0.0915604,0.396904
			c-0.0531311,0.1590538-0.1175003,0.309227-0.1913071,0.4462929c-0.0729675,0.1355362-0.1498947,0.2484627-0.2286224,0.3355827
			l-0.0490417,0.0543137l0.4073105,0.3467522l0.0457077-0.0364151c0.3671494-0.291954,0.6699219-0.6462708,0.8999405-1.053093
			c0.2315369-0.409874,0.3488998-0.8064308,0.3488998-1.1785736c0-0.3052711-0.083725-0.5462456-0.2488098-0.7160492
			C65.1926117,48.2271538,64.9753571,48.1407967,64.712677,48.1407967z"/>
		<path class="st1" d="M71.4861908,55.6180878c-0.2824478-0.1487885-0.6161652-0.2951469-0.9909363-0.434639
			c-0.2471466-0.0953751-0.488121-0.193943-0.7161942-0.2929955c-0.2223816-0.0964851-0.4069595-0.2119102-0.5484619-0.3430786
			c-0.1342239-0.1243019-0.1994247-0.2750282-0.1994247-0.4608574c0-0.2456207,0.0919113-0.4403954,0.2810669-0.5952873
			c0.1908188-0.1562767,0.4461517-0.2354927,0.7587814-0.2354927c0.5259171,0,1.0142441,0.2343826,1.4513779,0.6966286
			l0.0615311,0.0649948l0.5930634-0.8972282l-0.046196-0.0409279c-0.3095016-0.2739906-0.6414108-0.4870071-0.9865723-0.6330185
			c-0.3470306-0.1467781-0.710289-0.2212067-1.0797272-0.2212067c-0.4526062,0-0.8628235,0.0835152-1.2191544,0.2483253
			c-0.3584747,0.1658516-0.6439056,0.3980865-0.848465,0.6902466c-0.2058029,0.2940369-0.3101959,0.6353111-0.3101959,1.014389
			c0,0.3542442,0.0895462,0.6512642,0.2661514,0.8828011c0.1727829,0.2267532,0.3968353,0.4168129,0.6659698,0.5648384
			c0.2626801,0.1444855,0.5378494,0.2753754,0.8188477,0.3895493c0.3457108,0.1339417,0.6380844,0.2544289,0.868927,0.3579216
			c0.2225952,0.099884,0.3924637,0.2158623,0.5049057,0.3446045c0.1075821,0.1233292,0.1621704,0.2977791,0.1621704,0.5185661
			c0,0.2332764-0.0554886,0.4367218-0.1649475,0.6049309c-0.1098709,0.168972-0.2596283,0.3000717-0.4451828,0.3897591
			c-0.1874924,0.0906601-0.4002304,0.1366463-0.6323242,0.1366463c-0.358963,0-0.6998215-0.1038361-1.0132065-0.3086014
			c-0.3161621-0.2065659-0.5901566-0.5022011-0.81427-0.8787117l-0.0533447-0.0895462l-0.7004395,0.90382l0.0231628,0.0410614
			c0.2576904,0.4580154,0.6108932,0.8155899,1.0496292,1.0628052c0.4378967,0.246727,0.9475861,0.3718643,1.5149918,0.3718643
			c0.5304947,0,1.002037-0.0911484,1.4014359-0.2709389c0.4028702-0.1812515,0.7197952-0.4460831,0.9419708-0.7872887
			c0.2222443-0.3411331,0.3349609-0.7521896,0.3349609-1.2215805c0-0.4046021-0.0832367-0.7334595-0.2472839-0.9773445
			C72.0060806,55.9712906,71.776413,55.7711067,71.4861908,55.6180878z"/>
		<path class="st1" d="M84.3153076,49.3165932h-1.1138611l-0.4077911,2.8830681h-1.6005173l0.4078598-2.8830681h-1.1138535
			l-0.4077911,2.8830681h-1.570488v1.0983887h1.4239197l-0.2755203,1.9675255h-1.5140152v1.0983887h1.3534393l-0.4077911,2.8971481
			h1.1138535l0.4077911-2.8971481h1.6005173l-0.4078598,2.8971481h1.1138535l0.4077988-2.8971481h1.4297409v-1.0983887h-1.269165
			l0.2755127-1.9675255h1.3874283v-1.0983887h-1.24086L84.3153076,49.3165932z M82.6470871,53.2980499l-0.2755127,1.9675255
			h-1.6004486l0.2755127-1.9675255H82.6470871z"/>
		<polygon class="st1" points="91.2106247,48.1627159 87.3700485,49.3319244 87.3700485,50.6431236 89.8456726,49.9048767 
			89.8456726,58.0452919 87.4297028,58.0452919 87.4297028,59.2611122 93.6191025,59.2611122 93.6191025,58.0452919 
			91.2106247,58.0452919 		"/>
		<path class="st1" d="M106.5820847,48.7093773c-0.5298767-0.2472153-1.1599808-0.3725548-1.8727722-0.3725548h-3.1293106
			v10.9242897h1.4685822V54.82407h1.6607285c0.713829,0,1.3447037-0.1367149,1.8749237-0.4063377
			c0.5323029-0.2705193,0.952095-0.6588249,1.2475204-1.1541557c0.2950745-0.494709,0.4446259-1.0818787,0.4446259-1.7452126
			c0-0.6725578-0.1498947-1.2525139-0.4454575-1.7237091C107.5350876,49.3232536,107.1148758,48.9581871,106.5820847,48.7093773z
			 M103.048584,49.55056h1.3012772c0.4761887,0,0.9011154,0.0772743,1.2630615,0.2296677
			c0.3579254,0.1506615,0.6421051,0.3763733,0.8446503,0.6707535c0.2019958,0.2936211,0.3044434,0.663681,0.3044434,1.1000557
			c0,0.432209-0.1025238,0.8035851-0.3047867,1.1038666c-0.2028885,0.3010406-0.4873581,0.5344543-0.8456268,0.6935768
			c-0.3613892,0.160717-0.7858963,0.242218-1.2617416,0.242218h-1.3012772V49.55056z"/>
		<path class="st1" d="M119.9140854,49.7927132c-0.500946-0.5162811-1.0911026-0.9249763-1.754158-1.2147102
			c-0.6637497-0.2900848-1.3856277-0.4372063-2.1456528-0.4372063c-0.7601624,0-1.4820404,0.1471214-2.1456528,0.4372063
			c-0.6632614,0.2898712-1.253418,0.6985703-1.7542267,1.2147102c-0.5006027,0.5160713-0.897995,1.1226654-1.181076,1.8029251
			c-0.2832794,0.6808128-0.4269333,1.4243317-0.4269333,2.2098846c0,0.7813225,0.1436539,1.5237312,0.4268646,2.2064857
			c0.2831497,0.6826172,0.680542,1.2903175,1.1811447,1.8062515c0.5006714,0.5161438,1.0908966,0.924839,1.7542267,1.2147141
			c0.663681,0.2901497,1.3856277,0.4372749,2.1456528,0.4372749c0.7598877,0,1.4818344-0.1471252,2.1456528-0.4372749
			c0.6631927-0.2898064,1.2533493-0.6985016,1.754158-1.2147141c0.5009537-0.5162086,0.8984146-1.1239128,1.1811447-1.8062515
			c0.2834244-0.683033,0.4271469-1.4254417,0.4271469-2.2064857c0-0.7852783-0.1437225-1.5287971-0.4271469-2.2098846
			C120.8123627,50.915657,120.4150391,50.309063,119.9140854,49.7927132z M116.0142746,58.0473709
			c-0.5538788,0-1.0750122-0.1078606-1.5490494-0.3205338c-0.4748688-0.2128792-0.8959122-0.514061-1.2514038-0.8952866
			c-0.3557739-0.3811569-0.6367645-0.8351479-0.8352203-1.34935c-0.1983795-0.514267-0.2990265-1.0784111-0.2990265-1.6766777
			c0-0.5982704,0.100647-1.1624107,0.2990265-1.6767502c0.1985245-0.5141983,0.4795151-0.9681892,0.8352203-1.34935
			c0.3554916-0.3810883,0.776535-0.6822701,1.2514038-0.8952866c0.4743195-0.2126732,0.9955215-0.3205338,1.5490494-0.3205338
			c0.5533905,0,1.0745926,0.1078606,1.5490494,0.3205338c0.4745941,0.2128792,0.8957062,0.5141296,1.2516174,0.8952866
			c0.3555603,0.3811607,0.6364822,0.8351517,0.8348694,1.34935c0.1986618,0.5141296,0.2993774,1.07827,0.2993774,1.6767502
			c0,0.5984764-0.1007156,1.1626167-0.2993774,1.6766777c-0.1983871,0.5142021-0.4793091,0.9681931-0.8348694,1.34935
			c-0.3559113,0.3812981-0.7770233,0.6825485-1.2516174,0.8952866
			C117.0891495,57.9395103,116.5680161,58.0473709,116.0142746,58.0473709z"/>
		<path class="st1" d="M130.0826569,54.1001816c-0.3036804-0.2486-0.6604919-0.4694595-1.0604553-0.656395
			c-0.3956451-0.1847191-0.8214111-0.3666611-1.2667313-0.5413895c-0.2472153-0.0910759-0.4901276-0.187355-0.7219467-0.2862015
			c-0.2298737-0.0978012-0.438797-0.2119751-0.6212234-0.3392601c-0.1779938-0.1241608-0.3217163-0.2772522-0.4271469-0.4550323
			c-0.1039124-0.1751442-0.1566315-0.3938522-0.1566315-0.6498756c0-0.2871017,0.0717239-0.5612984,0.213089-0.8149643
			c0.1412277-0.2533188,0.3491821-0.4632149,0.618042-0.6237946c0.2685776-0.1602325,0.6026382-0.2415276,0.9928818-0.2415276
			c0.3211594,0,0.6252518,0.0513306,0.9036789,0.1525307c0.2792664,0.1015511,0.5302277,0.2356339,0.7459564,0.3983612
			c0.2161255,0.1632843,0.3962097,0.337944,0.5353546,0.5191231l0.0617218,0.0804634l0.7023926-1.1015778l-0.0310822-0.039608
			c-0.1778412-0.2267494-0.4182587-0.4460144-0.7145844-0.6516075c-0.2957764-0.2053223-0.6367645-0.376442-1.0135651-0.5085831
			c-0.3783112-0.1327629-0.785202-0.2000465-1.2094345-0.2000465c-0.4776459,0-0.9188004,0.082058-1.3111267,0.2438164
			c-0.3927383,0.1620369-0.735817,0.3870544-1.0196609,0.6687431c-0.2839737,0.2818298-0.5067749,0.6092987-0.6621552,0.9733238
			c-0.1555099,0.3642349-0.2344513,0.7562103-0.2344513,1.1649094c0,0.4057121,0.075058,0.7637024,0.2230759,1.0638428
			c0.1470566,0.2987518,0.3437729,0.5599785,0.5847473,0.7762604c0.2387543,0.2144051,0.5030289,0.3980827,0.7854843,0.5458984
			c0.2789841,0.1461487,0.5582428,0.2757912,0.8307114,0.3856659c0.3801117,0.146843,0.7397003,0.2948685,1.0686264,0.4398422
			c0.3254547,0.1435814,0.6138763,0.302845,0.8570709,0.4734116c0.2386169,0.1675148,0.4272766,0.3698502,0.5607452,0.6014595
			c0.1326141,0.2297363,0.1997681,0.5135078,0.1997681,0.8434029c0,0.3880959-0.0935059,0.7172318-0.2778778,0.9783897
			c-0.1853485,0.2624054-0.4357452,0.4631462-0.7444153,0.5966034c-0.3120117,0.1349144-0.6653519,0.2033081-1.0501862,0.2033081
			c-0.4071655,0-0.7764664-0.0643005-1.0977631-0.1911697c-0.3233719-0.1276321-0.6099854-0.2869606-0.8517914-0.47369
			c-0.2436142-0.1879768-0.4514236-0.3783836-0.6176224-0.565876c-0.1691132-0.1908226-0.3049316-0.3484192-0.4034271-0.4684906
			l-0.0593719-0.0722084l-0.8086548,1.1511078l0.0309372,0.0412712c0.0921173,0.1229134,0.2388916,0.2929955,0.4361649,0.5055275
			c0.1983795,0.2140579,0.454895,0.4338074,0.7621765,0.6532059c0.3085327,0.2205811,0.6815796,0.4093895,1.1087189,0.5612984
			c0.4283981,0.1523247,0.9222717,0.229599,1.4680328,0.229599c0.6994705,0,1.3315201-0.1252747,1.8785324-0.3722801
			c0.5499268-0.2483253,0.9898376-0.6140862,1.307251-1.0870132c0.3181-0.4738274,0.4793091-1.0532303,0.4793091-1.7222519
			c0-0.4967194-0.0893555-0.9274063-0.2655334-1.2799149C130.6343842,54.6571121,130.3895264,54.3514214,130.0826569,54.1001816z"/>
		<path class="st1" d="M140.8704987,47.8009796c-0.2477722-0.0780334-0.5132904-0.1176414-0.789093-0.1176414
			c-0.4479523,0-0.8338928,0.106266-1.1471405,0.3158836c-0.313385,0.2095528-0.555191,0.5160027-0.7187653,0.9106903
			c-0.1618958,0.3901749-0.2440186,0.8654594-0.2440186,1.4126091v2.1050034h-0.7384491v1.1026878h0.7384491v5.7308998h1.4097595
			v-5.7308998h1.6664124v-1.1026878h-1.6664124v-2.1115265c0-0.2877235,0.0319061-0.5391693,0.0950317-0.7472649
			c0.0609131-0.2008781,0.1587067-0.357502,0.2906342-0.4655724c0.1299896-0.1063347,0.3083954-0.1603012,0.5300903-0.1603012
			c0.2749634,0,0.50914,0.0700569,0.6962891,0.2083015l0.0683899,0.0504951l0.5073242-1.0299225l-0.0455017-0.0355148
			C141.3388519,47.9921494,141.1191101,47.8793602,140.8704987,47.8009796z"/>
		<path class="st1" d="M148.5540161,52.6775856c-0.5761414-0.304718-1.232605-0.4591942-1.9510956-0.4591942
			c-0.7184753,0-1.374939,0.1544762-1.9510803,0.4591942c-0.5769653,0.3049965-1.041153,0.7345009-1.3797913,1.2765846
			c-0.3389282,0.5426369-0.5106659,1.1785736-0.5106659,1.8901825c0,0.7071724,0.1717377,1.3419991,0.5105133,1.8867874
			c0.3386383,0.5442352,0.8028259,0.9749184,1.3799438,1.2799149c0.5761414,0.304718,1.232605,0.4591942,1.9510803,0.4591942
			c0.7184906,0,1.3749542-0.1544762,1.9510956-0.4591942c0.5771179-0.3050652,1.0413055-0.7356796,1.3797913-1.2799149
			c0.3387756-0.5447197,0.5106659-1.1794739,0.5106659-1.8867874c0-0.7116776-0.1718903-1.3476143-0.5108032-1.8901825
			C149.5951691,53.4120865,149.1309814,52.9825821,148.5540161,52.6775856z M147.8291473,57.9193268
			c-0.3579102,0.2020569-0.76828,0.3045082-1.219696,0.3045082c-0.4558716,0-0.868454-0.1024513-1.2262268-0.3045082
			c-0.3575134-0.2018509-0.643158-0.4853439-0.8490295-0.8427811c-0.2062836-0.3575058-0.3107452-0.7720947-0.3107452-1.232193
			c0-0.464325,0.1044617-0.8799591,0.3106079-1.2353821c0.2058716-0.3553543,0.4916534-0.6378059,0.8491669-0.8396568
			c0.3577728-0.2019882,0.7702179-0.3044395,1.2262268-0.3044395c0.451416,0,0.8619232,0.1024513,1.219696,0.3044395
			c0.3573761,0.2018509,0.643158,0.4843025,0.8491669,0.8395882c0.2061462,0.3557014,0.3106079,0.7713356,0.3106079,1.2354507
			c0,0.4598885-0.104599,0.8744812-0.3107452,1.2322617C148.472168,57.4339828,148.1865234,57.7174759,147.8291473,57.9193268z"/>
		<path class="st1" d="M157.0253601,52.2954559c-0.2200165-0.0511208-0.4397583-0.0770645-0.6531372-0.0770645
			c-0.4465637,0-0.8522034,0.1055717-1.2058258,0.3136673c-0.2880096,0.1695251-0.5370178,0.4048119-0.7424774,0.7010651v-0.8055992
			h-1.4097595v6.8335876h1.4097595v-4.2858963c0-0.2585907,0.0783844-0.5045586,0.2327881-0.731102
			c0.1564789-0.2295265,0.3640289-0.4190331,0.6169281-0.5631027c0.2513733-0.1434441,0.5199585-0.2161369,0.7979736-0.2161369
			c0.1501007,0,0.3136597,0.0212936,0.4863739,0.0633278c0.1717529,0.0418968,0.3242188,0.0989838,0.4530945,0.1696663
			l0.0653381,0.0357933l0.5857239-1.2004929l-0.0609131-0.0321159
			C157.4391937,52.4157333,157.2455292,52.346508,157.0253601,52.2954559z"/>
		<polygon class="st1" points="173.6408081,48.3368225 172.1172943,48.3368225 169.1734619,56.1397095 166.2297668,48.3368225 
			164.7061005,48.3368225 163.3885956,59.2611122 164.8578644,59.2611122 165.8687897,51.1363029 168.679718,58.71875 
			169.6671906,58.71875 172.4781189,51.1363029 173.4890442,59.2611122 174.958313,59.2611122 173.6483002,48.3993187 		"/>
		<path class="st1" d="M183.3021851,53.4754868c-0.2509613-0.3604202-0.580719-0.6523056-0.9831848-0.8695564
			c-0.4768066-0.2571335-1.0103607-0.3875389-1.5858002-0.3875389c-0.6507874,0-1.2394104,0.1596756-1.7493744,0.4745941
			c-0.5092773,0.3144989-0.9157562,0.7489281-1.2080536,1.2911491c-0.291748,0.5417366-0.4396362,1.1653938-0.4396362,1.8536301
			c0,0.6973915,0.1513519,1.3266678,0.4497528,1.8704834c0.2988281,0.5443039,0.70961,0.9786644,1.2210999,1.2908745
			c0.5121918,0.3126259,1.0929108,0.4711266,1.7262115,0.4711266c0.5628204,0,1.0847168-0.1327667,1.5509796-0.3946877
			c0.399826-0.2246704,0.7415161-0.5299454,1.0180054-0.9091606v1.0947113h1.4098969v-6.8335876h-1.4098969V53.4754868z
			 M183.0494232,54.6038399c0.1938019,0.3582649,0.2920227,0.7756348,0.2920227,1.2405128
			c0,0.4649506-0.0982208,0.8822479-0.2920227,1.240448c-0.1932526,0.3571587-0.4626617,0.641552-0.8007507,0.8453445
			c-0.3379517,0.2035179-0.7334595,0.3067322-1.1755981,0.3067322c-0.4380951,0-0.8325043-0.1032143-1.1723938-0.3068695
			c-0.3401642-0.2036552-0.6118011-0.4891586-0.8072662-0.8486061c-0.1958771-0.3602104-0.2952118-0.7763977-0.2952118-1.2370491
			c0-0.4648781,0.0993347-0.8821754,0.2950745-1.2402382c0.1954651-0.3572273,0.4671021-0.6416893,0.8074036-0.8454819
			c0.3400269-0.2036552,0.7345734-0.3068695,1.1723938-0.3068695c0.4420013,0,0.8375092,0.1032143,1.1755981,0.3067284
			C182.5867615,53.9623566,182.8561707,54.2467499,183.0494232,54.6038399z"/>
		<path class="st1" d="M193.3132935,53.4804115c-0.2565155-0.3624992-0.5873871-0.655983-0.9860992-0.8742714
			c-0.4704285-0.2572746-0.9963531-0.3877487-1.5631866-0.3877487c-0.6507874,0-1.240387,0.1596756-1.7525635,0.4745216
			c-0.5115051,0.3144989-0.9213104,0.7487907-1.2177734,1.2908745c-0.2961884,0.5416679-0.4464264,1.167614-0.4464264,1.8605652
			c0,0.6973915,0.1524658,1.3268051,0.4532318,1.8705559c0.3009033,0.5445099,0.7118073,0.9776917,1.2210846,1.2875443
			c0.509964,0.3104057,1.0873566,0.4677963,1.716217,0.4677963c0.5672607,0,1.0933228-0.1338768,1.5640411-0.3979454
			c0.401886-0.2256432,0.7413635-0.5287666,1.0114746-0.9029884v1.1972313c0,0.4681435-0.1032257,0.8756599-0.3065948,1.2112427
			c-0.2035217,0.3354492-0.4862518,0.5969543-0.8405609,0.7773018c-0.3565369,0.1813164-0.7688446,0.2732964-1.2256775,0.2732964
			c-0.5341034,0-1.0215912-0.1211815-1.4487457-0.3602104c-0.4250641-0.2377815-0.7384491-0.5603981-0.9312897-0.9588966
			l-0.0306549-0.0633278l-1.1784973,0.5562325l0.0281525,0.0634689c0.288147,0.6473808,0.7402649,1.1466637,1.3437347,1.4839172
			c0.6004181,0.3355141,1.3464966,0.5055962,2.2173004,0.5055962c0.7956085,0,1.4831543-0.1387291,2.0438995-0.4123039
			c0.5636597-0.2753067,0.9992676-0.678524,1.2948914-1.1984787c0.2945251-0.5182915,0.4439392-1.1479149,0.4439392-1.8713188
			v-6.9455414h-1.4098969V53.4804115z M193.063858,54.6072388c0.1958771,0.3602104,0.2952118,0.778614,0.2952118,1.2436371
			c0,0.4605789-0.0982208,0.8757248-0.2920227,1.2339249c-0.1932526,0.35709-0.4647522,0.6414146-0.8069916,0.8451385
			c-0.3422394,0.2036514-0.739975,0.3069382-1.1823883,0.3069382c-0.4381104,0-0.8325195-0.1032143-1.1723938-0.3068695
			c-0.3403015-0.2037239-0.6108246-0.4881172-0.8040771-0.8452072c-0.1936646-0.3579903-0.2918854-0.7731361-0.2918854-1.2339249
			c0-0.465023,0.0993347-0.8834267,0.2952118-1.2436371c0.1953278-0.3593102,0.4669647-0.6448822,0.8072662-0.8486061
			c0.3400269-0.2036552,0.7345734-0.3068695,1.1723938-0.3068695c0.4376984,0,0.8322449,0.1032143,1.1724091,0.3068695
			C192.5968933,53.9623566,192.868515,54.2479286,193.063858,54.6072388z"/>
		<path class="st1" d="M202.7468719,52.6584396c-0.5331421-0.2920227-1.1613159-0.4400482-1.867157-0.4400482
			c-0.4995728,0-0.9749908,0.094265-1.4131012,0.2800941c-0.4376831,0.1857567-0.8277893,0.449276-1.1596375,0.7831955
			c-0.3316956,0.3339195-0.5939026,0.7250671-0.7795105,1.1626205c-0.1858978,0.4380341-0.2801056,0.9156113-0.2801056,1.4196129
			c0,0.6810913,0.1660614,1.3014183,0.4937439,1.8435707c0.3273926,0.5420151,0.7803497,0.9759598,1.3463593,1.2899055
			c0.5657349,0.313736,1.2127686,0.4728584,1.9230652,0.4728584c0.6879578,0,1.3223724-0.1500359,1.8856049-0.4460144
			c0.5643463-0.2965355,1.0145264-0.718689,1.3379059-1.2546692l0.0391235-0.0647163l-1.0496216-0.5470085l-0.0359344,0.0500107
			c-0.2580414,0.3594475-0.5661469,0.6335793-0.9160309,0.814827c-0.3497314,0.181179-0.7520447,0.2730179-1.1957092,0.2730179
			c-0.4693146,0-0.8899384-0.0993271-1.2500763-0.2952843c-0.3595886-0.1954689-0.6450958-0.4691811-0.8484802-0.8135071
			c-0.1931-0.3260841-0.2958984-0.7051582-0.3063049-1.1278h5.735199l0.0127563-0.0550728
			c0.0137329-0.0593758,0.0226135-0.1075172,0.0273285-0.1444168c0.0045776-0.0370407,0.0070801-0.0857353,0.0070801-0.1460152
			c0-0.6887894-0.1514893-1.3030815-0.4504547-1.8258133C203.703537,53.3645706,203.2809753,52.9509506,202.7468719,52.6584396z
			 M198.750351,54.9825706c0.0645142-0.3052063,0.187149-0.5751038,0.3654175-0.8033142
			c0.1945038-0.2488098,0.446991-0.4440002,0.7506714-0.5800934c0.305481-0.1368561,0.6529846-0.2062225,1.0329742-0.2062225
			c0.3622131,0,0.6983643,0.0713768,0.999115,0.2121887c0.299942,0.1407394,0.5531158,0.3384972,0.7521973,0.5877953
			c0.1815948,0.2275848,0.3061676,0.4928322,0.3709564,0.7896461H198.750351z"/>
		<path class="st1" d="M211.9519501,52.5512009c-0.3880157-0.2208557-0.8529053-0.3328094-1.3813171-0.3328094
			c-0.5364685,0-1.0071716,0.1061287-1.3990936,0.3155403c-0.317688,0.1696663-0.5783539,0.3758163-0.7778473,0.6144981v-0.7209053
			h-1.4097595v6.8335876h1.4097595v-4.3120461c0-0.2821045,0.0693665-0.5461082,0.2062836-0.7847214
			c0.1365204-0.2379913,0.3353119-0.4313087,0.5905762-0.5746155c0.2560883-0.1435852,0.5686493-0.2163467,0.9292145-0.2163467
			c0.5209198,0,0.9296112,0.1613388,1.2148438,0.4795151c0.2871704,0.3204651,0.4326935,0.7904091,0.4326935,1.3967934v4.0114212
			h1.4099121v-4.2663345c0-0.570385-0.1071014-1.0693245-0.3182526-1.4830132
			C212.6465759,53.0959244,212.3413696,52.7727547,211.9519501,52.5512009z"/>
		<path class="st1" d="M218.9250336,58.0027695c-0.1782684,0.133667-0.3838654,0.2014351-0.6109619,0.2014351
			c-0.2219696,0-0.3870544-0.0781746-0.5046997-0.2388916c-0.1209717-0.1652946-0.1822815-0.4083481-0.1822815-0.7225685v-3.712532
			h1.6075897v-1.1026878h-1.6075897v-2.5028114h-1.4097748v2.5028114h-0.7449646v1.1026878h0.7449646v3.7909813
			c0,0.671936,0.1595459,1.2028503,0.4740448,1.5779762c0.3175507,0.3789368,0.7668915,0.5710793,1.3352661,0.5710793
			c0.2270966,0,0.4584961-0.0304527,0.6878204-0.0905228c0.2298737-0.0603485,0.434906-0.1431007,0.609436-0.2461052
			l0.0486908-0.028717l-0.3673553-1.1622734L218.9250336,58.0027695z"/>
		<path class="st1" d="M228.421463,53.9541702c-0.338501-0.5420837-0.8026886-0.9715881-1.3796692-1.2765846
			c-0.5761414-0.304718-1.232605-0.4591942-1.9510803-0.4591942s-1.3749542,0.1544762-1.9510956,0.4591942
			c-0.5769653,0.3049965-1.041153,0.7345009-1.3797913,1.2765846c-0.338913,0.5426369-0.5106659,1.1785736-0.5106659,1.8901825
			c0,0.7071724,0.1717529,1.3419991,0.5105286,1.8867874c0.3386383,0.5442352,0.8028259,0.9749184,1.3799286,1.2799149
			c0.5761414,0.304718,1.2326202,0.4591942,1.9510956,0.4591942s1.374939-0.1544762,1.9510803-0.4591942
			c0.5771179-0.3050652,1.0413055-0.7356796,1.3798065-1.2799149c0.3387756-0.5447197,0.5106506-1.1794739,0.5106506-1.8867874
			C228.932251,55.1326752,228.760376,54.4967384,228.421463,53.9541702z M226.3169403,57.9193268
			c-0.3579254,0.2020569-0.76828,0.3045082-1.2197113,0.3045082c-0.4558563,0-0.8684387-0.1024513-1.2262268-0.3045082
			c-0.3574982-0.2018509-0.6431427-0.4853439-0.8490143-0.8427811c-0.2062988-0.3575058-0.3107605-0.7720947-0.3107605-1.232193
			c0-0.464325,0.1044617-0.8799591,0.3106079-1.2353821c0.2058868-0.3553543,0.4916687-0.6378059,0.8491669-0.8396568
			c0.3577881-0.2019882,0.7702179-0.3044395,1.2262268-0.3044395c0.4514313,0,0.8619232,0.1024513,1.2197113,0.3044395
			c0.3573608,0.2018509,0.6431427,0.4843025,0.8491516,0.8395882c0.2061615,0.3557014,0.3106232,0.7713356,0.3106232,1.2354507
			c0,0.4598885-0.104599,0.8744812-0.3107605,1.2322617C226.9599457,57.4339828,226.6743011,57.7174759,226.3169403,57.9193268z"/>
	</g>
</g>
</svg>
